<svg width="716" height="716" viewBox="0 0 716 716" fill="none" xmlns="http://www.w3.org/2000/svg">
<g clip-path="url(#clip0_3_49)">
<path d="M516.411 668.826C527.905 672.619 540.283 666.363 544.059 654.853C547.834 643.342 541.577 630.935 530.083 627.141C525.567 625.651 522.581 622.572 520.206 616.099C516.029 604.72 503.44 598.878 492.085 603.05C480.731 607.223 474.912 619.829 479.088 631.208C485.921 649.828 498.669 662.969 516.411 668.826Z" fill="#F49000"/>
<path d="M395.882 669.798C414.259 666.49 428.695 655.266 438.03 637.788C443.735 627.106 439.711 613.804 429.043 608.078C418.375 602.352 405.102 606.37 399.397 617.052C396.152 623.128 392.77 625.757 388.092 626.599C376.187 628.742 368.28 640.149 370.431 652.078C372.582 664.007 383.977 671.94 395.882 669.798Z" fill="#F49000"/>
<path d="M711.494 514.485L555.012 313.689C546.625 302.926 530.229 303.479 522.633 314.781C486.134 369.082 488.538 442.006 529.881 495.056C571.223 548.106 641.22 568.087 702.604 545.719C715.38 541.063 719.882 525.248 711.494 514.485Z" fill="#58CC02"/>
<path d="M182.22 335.76L431.959 383.918C445.345 386.499 452.282 401.365 445.658 413.277C413.836 470.511 347.8 501.537 281.819 488.814C215.839 476.091 166.326 422.783 158.432 357.891C156.789 344.385 168.834 333.179 182.22 335.76Z" fill="#58CC02"/>
<path fill-rule="evenodd" clip-rule="evenodd" d="M576.983 212.61C504.654 222.088 458.243 225.195 437.749 221.933C426.042 220.069 414.633 213.146 403.523 201.164C382.108 178.067 346.024 176.704 322.927 198.119C313.544 206.819 307.359 218.422 305.368 231.062L278.642 400.66C264.082 493.061 327.101 579.798 419.478 594.504C511.668 609.18 598.299 546.342 612.975 454.153C612.989 454.065 613.003 453.978 613.017 453.89L640.728 278.034C645.631 246.921 624.383 217.725 593.27 212.822C587.879 211.973 582.394 211.901 576.983 212.61Z" fill="#58CC02"/>
<path fill-rule="evenodd" clip-rule="evenodd" d="M455.541 275.109C438.835 288.448 415.985 282.153 406.133 267.087C390.798 244.18 382.887 273.641 382.4 355.469L451.741 366.508C465.411 296.683 466.678 266.216 455.541 275.109Z" fill="#8CE009"/>
<path fill-rule="evenodd" clip-rule="evenodd" d="M516.451 260.291L511.686 259.532C477.154 254.035 444.704 277.573 439.207 312.104C439.202 312.137 439.197 312.17 439.192 312.203L433.234 350.006C427.798 384.508 451.329 416.896 485.822 422.387L490.587 423.145C525.119 428.642 557.569 405.105 563.066 370.573C563.071 370.541 563.076 370.508 563.081 370.475L569.039 332.671C574.475 298.17 550.945 265.782 516.451 260.291Z" fill="#8CE009"/>
<path d="M508.223 232.435L449.289 279.168C446.187 281.682 446.438 286.493 449.785 288.67C465.865 299.129 487.179 298.076 502.467 285.685C517.755 273.293 523.215 252.644 516.337 234.727C514.906 230.997 511.325 229.921 508.223 232.435Z" fill="#8CE009"/>
<path d="M530.699 249.674L472.794 296.609C469.69 299.125 469.94 303.938 473.287 306.114C489.37 316.571 510.693 315.51 525.992 303.11C541.29 290.71 546.76 270.054 539.885 252.134C538.454 248.404 533.803 247.159 530.699 249.674Z" fill="#8CE009"/>
<path d="M371.975 208.451L402.4 261.759C403.978 264.61 401.693 268.521 397.888 269.484C379.605 274.108 361.786 267.918 354.009 253.868C346.232 239.817 350.431 221.4 364.033 208.318C366.864 205.595 370.397 205.6 371.975 208.451Z" fill="#8CE009"/>
<path d="M349.256 216.725L378.712 269.943C380.291 272.796 378.007 276.709 374.202 277.67C355.917 282.292 338.094 276.094 330.311 262.033C322.529 247.973 326.723 229.548 340.323 216.463C343.154 213.739 347.677 213.872 349.256 216.725Z" fill="#8CE009"/>
<path fill-rule="evenodd" clip-rule="evenodd" d="M365.868 236.499C338.753 232.183 313.273 250.665 308.957 277.779C308.952 277.805 308.948 277.831 308.944 277.857L298.778 342.372C294.496 369.549 313.03 395.06 340.2 399.385C367.315 403.701 392.795 385.22 397.111 358.105C397.115 358.079 397.119 358.054 397.123 358.028L407.29 293.512C411.572 266.336 393.037 240.825 365.868 236.499Z" fill="#8CE009"/>
<mask id="mask0_3_49" style="mask-type:alpha" maskUnits="userSpaceOnUse" x="317" y="260" width="82" height="121">
<path d="M367.296 260.991C347.001 257.777 327.943 271.623 324.729 291.918L317.504 337.532C314.29 357.827 328.136 376.885 348.431 380.099C368.726 383.314 387.784 369.467 390.998 349.172L398.223 303.559C401.437 283.264 387.591 264.206 367.296 260.991Z" fill="white"/>
</mask>
<g mask="url(#mask0_3_49)">
<path d="M367.296 260.991C347.001 257.777 327.943 271.623 324.729 291.918L317.504 337.532C314.29 357.827 328.136 376.885 348.431 380.099C368.726 383.314 387.784 369.467 390.998 349.172L398.223 303.559C401.437 283.264 387.591 264.206 367.296 260.991Z" fill="white"/>
<path fill-rule="evenodd" clip-rule="evenodd" d="M369.35 292.66C359.541 290.93 350.188 297.479 348.458 307.288L348.457 307.289L342.813 339.306C341.084 349.115 347.634 358.47 357.443 360.2C367.252 361.93 376.606 355.381 378.336 345.572L383.98 313.554C385.709 303.744 379.159 294.39 369.35 292.66Z" fill="#4B4B4B"/>
<path d="M380.712 321.202C372.023 319.826 366.098 311.652 367.477 302.944C368.856 294.237 377.017 288.293 385.706 289.669C394.395 291.046 400.32 299.22 398.941 307.928C397.562 316.635 389.4 322.578 380.712 321.202Z" fill="white"/>
</g>
<path d="M458.012 473.275L415.653 468.807C413.383 468.568 411.553 470.499 412.04 472.621C414.377 482.815 423.465 490.643 434.656 491.824C445.847 493.004 456.358 487.243 460.756 477.759C461.672 475.785 460.282 473.514 458.012 473.275Z" fill="#89E219"/>
<path d="M388.048 465.921L345.689 461.454C343.419 461.214 341.589 463.145 342.076 465.267C344.414 475.462 353.502 483.29 364.693 484.47C375.884 485.651 386.395 479.889 390.793 470.405C391.708 468.431 390.318 466.161 388.048 465.921Z" fill="#89E219"/>
<path d="M417.296 505.11L374.937 500.642C372.667 500.403 370.837 502.334 371.323 504.456C373.661 514.65 382.749 522.478 393.94 523.659C405.131 524.839 415.642 519.078 420.04 509.594C420.956 507.62 419.566 505.349 417.296 505.11Z" fill="#89E219"/>
<mask id="mask1_3_49" style="mask-type:alpha" maskUnits="userSpaceOnUse" x="450" y="281" width="98" height="122">
<path d="M508.525 281.844C483.188 277.811 459.379 295.081 455.345 320.418C455.341 320.442 455.337 320.466 455.334 320.49L450.847 348.965C446.845 374.36 464.165 398.199 489.553 402.24C514.891 406.274 538.7 389.004 542.734 363.667C542.738 363.643 542.742 363.618 542.745 363.594L547.232 335.12C551.234 309.724 533.914 285.886 508.525 281.844Z" fill="white"/>
</mask>
<g mask="url(#mask1_3_49)">
<path d="M508.526 281.847C483.188 277.813 459.379 295.084 455.345 320.421C455.341 320.445 455.338 320.469 455.334 320.493L450.847 348.968C446.845 374.363 464.165 398.202 489.554 402.243C514.891 406.277 538.701 389.007 542.734 363.67C542.738 363.645 542.742 363.621 542.746 363.597L547.233 335.123C551.234 309.727 533.915 285.889 508.526 281.847Z" fill="white"/>
<path fill-rule="evenodd" clip-rule="evenodd" d="M507.894 311.342C496.01 309.451 484.843 317.55 482.951 329.434C482.95 329.445 482.948 329.456 482.946 329.468L479.094 353.912C477.217 365.822 485.341 377.003 497.248 378.898C509.132 380.79 520.299 372.69 522.191 360.807C522.192 360.796 522.194 360.784 522.196 360.773L526.048 336.329C527.925 324.419 519.801 313.238 507.894 311.342Z" fill="#4B4B4B"/>
<path d="M522.47 339.57C513.934 341.698 505.286 336.489 503.153 327.935C501.02 319.381 506.211 310.721 514.746 308.593C523.282 306.464 531.93 311.674 534.063 320.228C536.196 328.782 531.005 337.442 522.47 339.57Z" fill="white"/>
</g>
<path fill-rule="evenodd" clip-rule="evenodd" d="M419.767 347.946L415.201 347.304C402.205 345.478 390.189 354.532 388.363 367.528L383.076 405.142C381.25 418.138 390.305 430.154 403.301 431.98L407.867 432.622C420.863 434.449 432.879 425.394 434.705 412.398L439.992 374.784C441.818 361.788 432.763 349.772 419.767 347.946Z" fill="#F49000"/>
<mask id="mask2_3_49" style="mask-type:alpha" maskUnits="userSpaceOnUse" x="389" y="348" width="42" height="71">
<path d="M414.79 348.714C404.828 347.314 395.617 354.255 394.217 364.217L389.573 397.264C388.173 407.226 395.114 416.437 405.076 417.837C415.038 419.238 424.249 412.297 425.649 402.334L430.294 369.287C431.694 359.325 424.753 350.114 414.79 348.714Z" fill="white"/>
</mask>
<g mask="url(#mask2_3_49)">
<path d="M414.79 348.714C404.828 347.314 395.617 354.255 394.217 364.217L389.573 397.264C388.173 407.226 395.114 416.437 405.076 417.837C415.038 419.238 424.249 412.297 425.649 402.334L430.294 369.287C431.694 359.325 424.753 350.114 414.79 348.714Z" fill="#CD7900"/>
<path fill-rule="evenodd" clip-rule="evenodd" d="M417.31 400.931C406.812 399.456 397.105 406.77 395.629 417.268C394.154 427.767 401.468 437.473 411.967 438.949C422.465 440.424 432.172 433.11 433.647 422.612C435.123 412.113 427.808 402.406 417.31 400.931Z" fill="#FFAADE"/>
</g>
<path d="M442.096 375.832C441.713 359.808 429.532 346.206 413.214 343.912C396.896 341.619 381.437 351.337 376.652 366.634L376.323 367.684L391.709 375.518L442.123 376.932L442.096 375.832Z" fill="#FFC200"/>
<path d="M416.182 359.786C418.529 360.952 421.377 359.991 422.543 357.638C423.708 355.285 422.75 352.431 420.403 351.265C414.707 348.434 408.654 347.583 402.398 348.734C399.82 349.209 398.113 351.687 398.585 354.27C399.056 356.854 401.529 358.563 404.107 358.089C408.347 357.308 412.321 357.867 416.182 359.786Z" fill="#FFDE00"/>
<g opacity="0.5435">
<path d="M204.341 81.553C158.979 34.5797 83.881 33.5112 36.6033 79.1665C-10.6741 124.822 -12.2272 199.912 33.1344 246.885C71.505 286.619 131.152 293.507 177.24 267.055L225.102 285.586C231.961 287.963 238.455 281.692 236.319 274.754L219.469 226.275C247.514 181.138 242.711 121.286 204.341 81.553Z" fill="#71C8FF"/>
</g>
</g>
<defs>
<clipPath id="clip0_3_49">
<rect width="716" height="626" fill="white" transform="translate(0 45)"/>
</clipPath>
</defs>
</svg>
